# This file uses meters as units for non-parametric coordinates.

mtllib stand3.mtl
g default
v -2.067658 0.455128 3.530226
v 0.752427 0.455128 3.530226
v -2.067658 1.854380 3.530226
v 0.752427 1.854380 3.530226
v -2.067658 1.854380 -3.954233
v 0.752427 1.854380 -3.954233
v -2.067658 0.455128 -3.954233
v 0.752427 0.455128 -3.954233
v 0.752427 1.854380 -1.459413
v -2.067658 1.854380 -1.459413
v -2.067658 0.455128 -1.459413
v 0.752427 0.455128 -1.459413
v 0.752427 1.854380 1.035406
v -2.067658 1.854380 1.035406
v -2.067658 0.455128 1.035406
v 0.752427 0.455128 1.035406
v 0.752427 2.737029 1.035406
v -2.067658 2.737029 1.035406
v 0.752427 2.737029 -1.459413
v -2.067658 2.737029 -1.459413
vt 0.375000 0.000000
vt 0.625000 0.000000
vt 0.375000 0.250000
vt 0.625000 0.250000
vt 0.375000 0.500000
vt 0.625000 0.500000
vt 0.375000 0.750000
vt 0.625000 0.750000
vt 0.375000 1.000000
vt 0.625000 1.000000
vt 0.875000 0.000000
vt 0.875000 0.250000
vt 0.125000 0.000000
vt 0.125000 0.250000
vt 0.625000 0.416667
vt 0.791667 0.250000
vt 0.208333 0.250000
vt 0.375000 0.416667
vt 0.208333 0.000000
vt 0.375000 0.833333
vt 0.625000 0.833333
vt 0.791667 0.000000
vt 0.625000 0.333333
vt 0.708333 0.250000
vt 0.291667 0.250000
vt 0.375000 0.333333
vt 0.291667 0.000000
vt 0.375000 0.916667
vt 0.625000 0.916667
vt 0.708333 0.000000
vt 0.375000 0.333333
vt 0.625000 0.333333
vt 0.625000 0.416667
vt 0.375000 0.416667
vn 0.000000 0.000000 1.000000
vn 0.000000 0.000000 1.000000
vn 0.000000 0.000000 1.000000
vn 0.000000 0.000000 1.000000
vn 0.000000 1.000000 0.000000
vn 0.000000 1.000000 0.000000
vn 0.000000 1.000000 0.000000
vn 0.000000 1.000000 0.000000
vn 0.000000 0.000000 -1.000000
vn 0.000000 0.000000 -1.000000
vn 0.000000 0.000000 -1.000000
vn 0.000000 0.000000 -1.000000
vn 0.000000 -1.000000 0.000000
vn 0.000000 -1.000000 0.000000
vn 0.000000 -1.000000 0.000000
vn 0.000000 -1.000000 0.000000
vn 1.000000 0.000000 0.000000
vn 1.000000 0.000000 0.000000
vn 1.000000 0.000000 0.000000
vn 1.000000 0.000000 0.000000
vn -1.000000 0.000000 0.000000
vn -1.000000 0.000000 0.000000
vn -1.000000 0.000000 0.000000
vn -1.000000 0.000000 0.000000
vn 0.000000 1.000000 0.000000
vn 0.000000 1.000000 0.000000
vn 0.000000 1.000000 0.000000
vn 0.000000 1.000000 0.000000
vn -1.000000 0.000000 0.000000
vn -1.000000 0.000000 0.000000
vn -1.000000 0.000000 0.000000
vn -1.000000 0.000000 0.000000
vn 0.000000 -1.000000 0.000000
vn 0.000000 -1.000000 0.000000
vn 0.000000 -1.000000 0.000000
vn 0.000000 -1.000000 0.000000
vn 1.000000 0.000000 0.000000
vn 1.000000 0.000000 0.000000
vn 1.000000 0.000000 0.000000
vn 1.000000 0.000000 0.000000
vn 0.000000 1.000000 0.000000
vn 0.000000 1.000000 0.000000
vn 0.000000 1.000000 0.000000
vn 0.000000 1.000000 0.000000
vn 0.000000 0.000000 1.000000
vn 0.000000 0.000000 1.000000
vn 0.000000 0.000000 1.000000
vn 0.000000 0.000000 1.000000
vn 1.000000 0.000000 0.000000
vn 1.000000 0.000000 0.000000
vn 1.000000 0.000000 0.000000
vn 1.000000 0.000000 0.000000
vn 0.000000 0.000000 -1.000000
vn 0.000000 0.000000 -1.000000
vn 0.000000 0.000000 -1.000000
vn 0.000000 0.000000 -1.000000
vn -1.000000 0.000000 0.000000
vn -1.000000 0.000000 0.000000
vn -1.000000 0.000000 0.000000
vn -1.000000 0.000000 0.000000
s off
g stand1 stand_1x1
usemtl initialShadingGroup
f 1/1/1 2/2/2 4/4/3 3/3/4
f 3/3/5 4/4/6 13/23/7 14/26/8
f 5/5/9 6/6/10 8/8/11 7/7/12
s 1
f 15/28/13 16/29/14 2/10/15 1/9/16
s 2
f 2/2/17 16/30/18 13/24/19 4/4/20
s 3
f 15/27/21 1/1/22 3/3/23 14/25/24
s off
f 10/18/25 9/15/26 6/6/27 5/5/28
s 3
f 7/13/29 11/19/30 10/17/31 5/14/32
s 1
f 7/7/33 8/8/34 12/21/35 11/20/36
s 2
f 9/16/37 12/22/38 8/11/39 6/12/40
s off
f 18/31/41 17/32/42 19/33/43 20/34/44
s 3
f 11/19/30 15/27/21 14/25/24 10/17/31
s 1
f 11/20/36 12/21/35 16/29/14 15/28/13
s 2
f 13/24/19 16/30/18 12/22/38 9/16/37
s off
f 14/26/45 13/23/46 17/32/47 18/31/48
f 13/23/49 9/15/50 19/33/51 17/32/52
f 9/15/53 10/18/54 20/34/55 19/33/56
f 10/18/57 14/26/58 18/31/59 20/34/60
