# This file uses meters as units for non-parametric coordinates.

mtllib stand4.mtl
g default
v -1.378873 0.020874 1.638633
v 1.367356 0.020874 1.638633
v -1.378873 1.326958 1.638633
v 1.367356 1.326958 1.638633
v -1.378873 1.326958 -1.107596
v 1.367356 1.326958 -1.107596
v -1.378873 0.020874 -1.107596
v 1.367356 0.020874 -1.107596
v -1.378873 1.000437 1.638633
v -1.378873 1.000437 -1.107596
v 1.367356 1.000437 -1.107596
v 1.367356 1.000437 1.638633
v -1.378873 0.020874 2.453118
v 1.367356 0.020874 2.453118
v 1.367356 0.020874 -1.922080
v -1.378873 0.020874 -1.922080
v -1.378873 0.673916 2.453118
v -1.378873 0.673916 -1.922080
v -1.378873 1.000437 2.453118
v -1.378873 1.000437 -1.922080
v 1.367356 1.000437 -1.922081
v 1.367356 0.673916 -1.922081
v 1.367356 0.673916 2.453117
v 1.367356 1.000437 2.453117
v 2.131577 0.020874 -1.107596
v 2.131577 0.020874 1.638633
v 2.131577 0.673916 -1.107596
v 2.131577 0.673916 1.638633
v 2.131577 1.000437 -1.107596
v 2.131577 1.000437 1.638633
v -2.143097 0.020874 -1.107596
v -2.143097 0.020874 1.638633
v -2.143097 0.673916 1.638633
v -2.143097 0.673916 -1.107596
v -2.143097 1.000437 1.638633
v -2.143097 1.000437 -1.107596
v -1.897442 0.020874 3.279283
v 1.885923 0.020874 3.279283
v 1.885923 0.347395 3.279283
v -1.897442 0.347395 3.279283
v -1.897442 0.347395 -2.748245
v 1.885923 0.347395 -2.748245
v 1.885923 0.020874 -2.748245
v -1.897442 0.020874 -2.748245
v 2.938759 0.020874 -1.626164
v 2.938759 0.020874 2.157201
v 2.938759 0.347395 -1.626164
v 2.938759 0.347395 2.157201
v -2.950280 0.020874 -1.626164
v -2.950280 0.020874 2.157201
v -2.950280 0.347395 2.157201
v -2.950280 0.347395 -1.626164
v -2.950280 0.673916 2.157201
v -2.950280 0.673916 -1.626164
v -1.897442 0.673916 -2.748245
v 1.885923 0.673916 -2.748246
v 2.938759 0.673916 -1.626164
v 2.938759 0.673916 2.157201
v 1.885923 0.673916 3.279281
v -1.897442 0.673916 3.279283
v -2.364606 0.020874 4.023552
v 2.353087 0.020874 4.023552
v 2.353087 0.347395 4.023552
v -2.364606 0.347395 4.023552
v -2.364606 0.347395 -3.492514
v 2.353087 0.347395 -3.492514
v 2.353087 0.020874 -3.492514
v -2.364606 0.020874 -3.492514
v 3.665928 0.020874 -2.093328
v 3.665928 0.020874 2.624364
v 3.665928 0.347395 -2.093328
v 3.665928 0.347395 2.624364
v -3.677449 0.020874 -2.093328
v -3.677449 0.020874 2.624364
v -3.677449 0.347395 2.624364
v -3.677449 0.347395 -2.093328
vt 0.375000 0.000000
vt 0.625000 0.000000
vt 0.375000 0.250000
vt 0.625000 0.250000
vt 0.375000 0.500000
vt 0.625000 0.500000
vt 0.375000 0.750000
vt 0.625000 0.750000
vt 0.375000 1.000000
vt 0.625000 1.000000
vt 0.875000 0.000000
vt 0.875000 0.250000
vt 0.125000 0.000000
vt 0.125000 0.250000
vt 0.375000 0.187500
vt 0.125000 0.187500
vt 0.375000 0.562500
vt 0.625000 0.562500
vt 0.875000 0.187500
vt 0.625000 0.187500
vt 0.375000 0.125000
vt 0.125000 0.125000
vt 0.375000 0.625000
vt 0.625000 0.625000
vt 0.875000 0.125000
vt 0.625000 0.125000
vt 0.375000 0.062500
vt 0.125000 0.062500
vt 0.375000 0.687500
vt 0.625000 0.687500
vt 0.875000 0.062500
vt 0.625000 0.062500
vt 0.375000 0.000000
vt 0.625000 0.000000
vt 0.625000 0.750000
vt 0.375000 0.750000
vt 0.875000 0.000000
vt 0.125000 0.000000
vt 0.375000 0.187500
vt 0.125000 0.187500
vt 0.375000 0.562500
vt 0.625000 0.562500
vt 0.875000 0.187500
vt 0.625000 0.187500
vt 0.625000 0.000000
vt 0.875000 0.000000
vt 0.875000 0.062500
vt 0.625000 0.062500
vt 0.125000 0.000000
vt 0.375000 0.000000
vt 0.375000 0.062500
vt 0.125000 0.062500
vt 0.375000 0.125000
vt 0.375000 0.187500
vt 0.125000 0.187500
vt 0.125000 0.125000
vt 0.875000 0.125000
vt 0.875000 0.187500
vt 0.625000 0.187500
vt 0.625000 0.125000
vt 0.375000 0.000000
vt 0.625000 0.000000
vt 0.625000 0.750000
vt 0.375000 0.750000
vt 0.625000 0.000000
vt 0.875000 0.000000
vt 0.125000 0.000000
vt 0.375000 0.000000
vt 0.375000 0.125000
vt 0.125000 0.125000
vt 0.375000 0.625000
vt 0.625000 0.625000
vt 0.875000 0.125000
vt 0.625000 0.125000
vt 0.625000 0.125000
vt 0.375000 0.125000
vt 0.875000 0.000000
vt 0.375000 0.187500
vt 0.375000 0.187500
vt 0.875000 0.125000
vt 0.625000 0.187500
vt 0.625000 0.187500
vt 0.375000 0.000000
vt 0.625000 0.000000
vt 0.625000 0.062500
vt 0.375000 0.062500
vt 0.375000 0.687500
vt 0.625000 0.687500
vt 0.625000 0.750000
vt 0.375000 0.750000
vt 0.625000 0.000000
vt 0.875000 0.000000
vt 0.875000 0.062500
vt 0.625000 0.062500
vt 0.125000 0.000000
vt 0.375000 0.000000
vt 0.375000 0.062500
vt 0.125000 0.062500
vt 0.875000 0.062500
vt 0.875000 0.000000
vt 0.875000 0.187500
vt 0.875000 0.187500
vt 0.875000 0.125000
vt 0.875000 0.125000
vt 0.625000 0.187500
vt 0.625000 0.187500
vn 0.000000 0.000000 1.000000
vn 0.000000 0.000000 1.000000
vn 0.000000 0.000000 1.000000
vn 0.000000 0.000000 1.000000
vn 0.000000 1.000000 0.000000
vn 0.000000 1.000000 0.000000
vn 0.000000 1.000000 0.000000
vn 0.000000 1.000000 0.000000
vn 0.000000 0.000000 -1.000000
vn 0.000000 0.000000 -1.000000
vn 0.000000 0.000000 -1.000000
vn 0.000000 0.000000 -1.000000
vn 0.000000 -1.000000 0.000000
vn 0.000000 -1.000000 0.000000
vn 0.000000 -1.000000 0.000000
vn 0.000000 -1.000000 0.000000
vn 1.000000 0.000000 0.000000
vn 1.000000 0.000000 0.000000
vn 1.000000 0.000000 0.000000
vn 1.000000 0.000000 0.000000
vn -1.000000 0.000000 0.000000
vn -1.000000 0.000000 0.000000
vn -1.000000 0.000000 0.000000
vn -1.000000 0.000000 0.000000
vn -1.000000 0.000000 0.000000
vn -1.000000 0.000000 0.000000
vn -1.000000 0.000000 0.000000
vn -1.000000 0.000000 0.000000
vn 0.000000 0.000000 -1.000000
vn 0.000000 0.000000 -1.000000
vn 0.000000 0.000000 -1.000000
vn 0.000000 0.000000 -1.000000
vn 1.000000 0.000000 0.000000
vn 1.000000 0.000000 0.000000
vn 1.000000 0.000000 0.000000
vn 1.000000 0.000000 0.000000
vn 0.000000 0.000000 1.000000
vn 0.000000 0.000000 1.000000
vn 0.000000 0.000000 1.000000
vn 0.000000 0.000000 1.000000
vn -1.000000 0.000000 0.000000
vn -1.000000 0.000000 0.000000
vn -1.000000 0.000000 0.000000
vn -1.000000 0.000000 0.000000
vn -0.000000 0.000000 -1.000000
vn -0.000000 0.000000 -1.000000
vn -0.000000 0.000000 -1.000000
vn -0.000000 0.000000 -1.000000
vn 1.000000 0.000000 0.000000
vn 1.000000 0.000000 0.000000
vn 1.000000 0.000000 0.000000
vn 1.000000 0.000000 0.000000
vn 0.000001 0.000000 1.000000
vn 0.000001 0.000000 1.000000
vn 0.000001 0.000000 1.000000
vn 0.000001 0.000000 1.000000
vn -1.000000 0.000000 0.000000
vn -1.000000 0.000000 0.000000
vn -1.000000 0.000000 0.000000
vn -1.000000 0.000000 0.000000
vn -0.000000 -0.000002 -1.000000
vn -0.000000 -0.000002 -1.000000
vn -0.000000 -0.000002 -1.000000
vn -0.000000 -0.000002 -1.000000
vn 1.000000 0.000000 0.000000
vn 1.000000 0.000000 0.000000
vn 1.000000 0.000000 0.000000
vn 1.000000 0.000000 0.000000
vn 0.000000 0.000003 1.000000
vn 0.000000 0.000003 1.000000
vn 0.000000 0.000003 1.000000
vn 0.000000 0.000003 1.000000
vn 0.000000 -1.000000 0.000000
vn 0.000000 -1.000000 0.000000
vn 0.000000 -1.000000 0.000000
vn 0.000000 -1.000000 0.000000
vn 0.000000 -1.000000 0.000000
vn 0.000000 -1.000000 0.000000
vn 0.000000 -1.000000 0.000000
vn 0.000000 -1.000000 0.000000
vn 0.000000 0.000000 0.000000
vn 0.000000 0.000000 0.000000
vn 0.000000 0.000000 0.000000
vn 0.000000 0.000000 0.000000
vn 0.000000 0.000000 0.000000
vn 0.000000 0.000000 0.000000
vn 0.000000 0.000000 0.000000
vn 0.000000 0.000000 0.000000
vn 0.000000 0.000000 0.000000
vn 0.000000 0.000000 0.000000
vn 0.000000 0.000000 0.000000
vn 0.000000 0.000000 0.000000
vn 0.000000 1.000000 0.000000
vn 0.000000 1.000000 0.000000
vn 0.000000 1.000000 0.000000
vn 0.000000 1.000000 0.000000
vn 1.000000 0.000000 0.000000
vn 1.000000 0.000000 0.000000
vn 0.000000 0.000000 0.000000
vn 0.000000 0.000000 0.000000
vn 0.000000 1.000000 0.000000
vn 0.000000 1.000000 0.000000
vn 0.000000 1.000000 0.000000
vn 0.000000 1.000000 0.000000
vn 0.000000 -1.000000 0.000000
vn 0.000000 -1.000000 0.000000
vn 0.000000 -1.000000 0.000000
vn 0.000000 -1.000000 0.000000
vn 0.729250 0.000000 -0.684247
vn 0.729250 0.000000 -0.684247
vn 0.729250 0.000000 -0.684247
vn 0.729250 0.000000 -0.684247
vn 0.729251 0.000000 0.684247
vn 0.729251 0.000000 0.684247
vn 0.729251 0.000000 0.684247
vn 0.729251 0.000000 0.684247
vn 0.729251 0.000000 -0.684247
vn 0.729251 0.000000 -0.684247
vn 0.729251 0.000000 -0.684247
vn 0.729251 0.000000 -0.684247
vn -0.000000 1.000000 0.000000
vn -0.000000 1.000000 0.000000
vn -0.000000 1.000000 0.000000
vn -0.000000 1.000000 0.000000
vn 0.729250 0.000000 0.684247
vn 0.729250 0.000000 0.684247
vn 0.729250 0.000000 0.684247
vn 0.729250 0.000000 0.684247
vn 0.729250 -0.000002 -0.684247
vn 0.729250 -0.000002 -0.684247
vn 0.729250 -0.000002 -0.684247
vn 0.729250 -0.000002 -0.684247
vn 0.729250 0.000002 0.684247
vn 0.729250 0.000002 0.684247
vn 0.729250 0.000002 0.684247
vn 0.729250 0.000002 0.684247
vn 0.000000 -1.000000 0.000000
vn 0.000000 -1.000000 0.000000
vn 0.000000 -1.000000 0.000000
vn 0.000000 -1.000000 0.000000
vn -0.729250 0.000000 0.684248
vn -0.729250 0.000000 0.684248
vn -0.729250 0.000000 0.684248
vn -0.729250 0.000000 0.684248
vn -0.729249 0.000000 -0.684248
vn -0.729249 0.000000 -0.684248
vn -0.729249 0.000000 -0.684248
vn -0.729249 0.000000 -0.684248
vn -0.729250 0.000000 0.684248
vn -0.729250 0.000000 0.684248
vn -0.729250 0.000000 0.684248
vn -0.729250 0.000000 0.684248
vn 0.000000 1.000000 0.000000
vn 0.000000 1.000000 0.000000
vn 0.000000 1.000000 0.000000
vn 0.000000 1.000000 0.000000
vn -0.729249 0.000000 -0.684249
vn -0.729249 0.000000 -0.684248
vn -0.729249 0.000000 -0.684249
vn -0.729249 0.000000 -0.684249
vn -0.729250 0.000000 0.684248
vn -0.729250 0.000000 0.684248
vn -0.729250 0.000000 0.684248
vn -0.729250 0.000000 0.684248
vn -0.729249 0.000000 -0.684248
vn -0.729249 0.000000 -0.684248
vn -0.729249 0.000000 -0.684248
vn -0.729249 0.000000 -0.684248
vn 0.000000 -1.000000 0.000000
vn 0.000000 -1.000000 0.000000
vn 0.000000 -1.000000 0.000000
vn 0.000000 -1.000000 0.000000
vn 0.000000 -1.000000 0.000000
vn 0.000000 -1.000000 0.000000
vn 0.000000 -1.000000 0.000000
vn 0.000000 -1.000000 0.000000
vn 0.000000 -1.000000 0.000000
vn 0.000000 -1.000000 0.000000
vn 0.000000 -1.000000 0.000000
vn 0.000000 -1.000000 0.000000
vn 0.000000 -1.000000 0.000000
vn 0.000000 -1.000000 0.000000
vn 0.000000 -1.000000 0.000000
vn 0.000000 -1.000000 0.000000
vn 0.000000 1.000000 0.000000
vn 0.000000 1.000000 0.000000
vn 0.000000 1.000000 0.000000
vn 0.000000 1.000000 0.000000
vn -0.000000 1.000000 -0.000000
vn -0.000000 1.000000 -0.000000
vn -0.000000 1.000000 -0.000000
vn -0.000000 1.000000 -0.000000
vn 0.000000 1.000000 0.000000
vn 0.000000 1.000000 0.000000
vn 0.000000 1.000000 0.000000
vn 0.000000 1.000000 0.000000
vn 0.000000 1.000000 0.000000
vn 0.000000 1.000000 0.000000
vn 0.000000 1.000000 0.000000
vn 0.000000 1.000000 0.000000
vn 0.000000 -1.000000 -0.000000
vn 0.000000 -1.000000 -0.000000
vn 0.000000 -1.000000 -0.000000
vn 0.000000 -1.000000 -0.000000
vn 0.000000 -1.000000 0.000000
vn 0.000000 -1.000000 0.000000
vn 0.000000 -1.000000 0.000000
vn 0.000000 -1.000000 0.000000
vn 0.000000 1.000000 0.000000
vn 0.000000 1.000000 0.000000
vn 0.000000 1.000000 0.000000
vn 0.000000 1.000000 0.000000
vn 0.000000 1.000000 -0.000000
vn 0.000000 1.000000 -0.000000
vn 0.000000 1.000000 -0.000000
vn 0.000000 1.000000 -0.000000
vn 0.000000 -1.000000 0.000000
vn 0.000000 -1.000000 0.000000
vn 0.000000 -1.000000 0.000000
vn 0.000000 -1.000000 0.000000
vn 0.000000 -1.000000 0.000000
vn 0.000000 -1.000000 0.000000
vn 0.000000 -1.000000 0.000000
vn 0.000000 -1.000000 0.000000
vn 0.000000 1.000000 0.000000
vn 0.000000 1.000000 0.000000
vn 0.000000 1.000000 0.000000
vn 0.000000 1.000000 0.000000
vn 0.000000 1.000000 -0.000000
vn 0.000000 1.000000 -0.000000
vn 0.000000 1.000000 -0.000000
vn 0.000000 1.000000 -0.000000
vn 0.000000 -1.000000 0.000000
vn 0.000000 -1.000000 0.000000
vn 0.000000 -1.000000 0.000000
vn 0.000000 -1.000000 0.000000
vn 0.000000 1.000000 0.000000
vn 0.000000 1.000000 0.000000
vn 0.000000 1.000000 0.000000
vn 0.000000 1.000000 0.000000
vn 0.000000 1.000000 -0.000000
vn 0.000000 1.000000 -0.000000
vn 0.000000 1.000000 -0.000000
vn 0.000000 1.000000 -0.000000
vn 0.000000 -1.000000 0.000000
vn 0.000000 -1.000000 0.000000
vn 0.000000 -1.000000 0.000000
vn 0.000000 -1.000000 0.000000
vn 0.000000 -1.000000 0.000000
vn 0.000000 -1.000000 0.000000
vn 0.000000 -1.000000 0.000000
vn 0.000000 -1.000000 0.000000
vn 0.000000 1.000000 0.000000
vn 0.000000 1.000000 0.000000
vn 0.000000 1.000000 0.000000
vn 0.000000 1.000000 0.000000
vn 0.000000 -1.000000 0.000000
vn 0.000000 -1.000000 0.000000
vn 0.000000 -1.000000 0.000000
vn 0.000000 -1.000000 0.000000
vn 0.000000 1.000000 0.000000
vn 0.000000 1.000000 0.000000
vn 0.000000 1.000000 0.000000
vn 0.000000 1.000000 0.000000
vn 0.000000 1.000000 -0.000000
vn 0.000000 1.000000 -0.000000
vn 0.000000 1.000000 -0.000000
vn 0.000000 1.000000 -0.000000
vn 0.000000 -1.000000 0.000000
vn 0.000000 -1.000000 0.000000
vn 0.000000 -1.000000 0.000000
vn 0.000000 -1.000000 0.000000
vn 0.000000 -1.000000 -0.000000
vn 0.000000 -1.000000 -0.000000
vn 0.000000 -1.000000 -0.000000
vn 0.000000 -1.000000 -0.000000
vn 0.000000 1.000000 0.000000
vn 0.000000 1.000000 0.000000
vn 0.000000 1.000000 0.000000
vn 0.000000 1.000000 0.000000
vn 0.000000 1.000000 0.000000
vn 0.000000 1.000000 0.000000
vn 0.000000 1.000000 0.000000
vn 0.000000 1.000000 0.000000
vn 0.000000 -1.000000 0.000000
vn 0.000000 -1.000000 0.000000
vn 0.000000 -1.000000 0.000000
vn 0.000000 -1.000000 0.000000
vn 0.000000 -1.000000 0.000000
vn 0.000000 -1.000000 0.000000
vn 0.000000 -1.000000 0.000000
vn 0.000000 -1.000000 0.000000
vn 0.000000 1.000000 0.000000
vn 0.000000 1.000000 0.000000
vn 0.000000 1.000000 0.000000
vn 0.000000 1.000000 0.000000
s off
g pCube1
usemtl initialShadingGroup
f 61/83/1 62/84/2 63/85/3 64/86/4
f 3/3/5 4/4/6 6/6/7 5/5/8
f 65/87/9 66/88/10 67/89/11 68/90/12
f 7/7/13 8/8/14 2/10/15 1/9/16
f 70/91/17 69/92/18 71/93/19 72/94/20
f 73/95/21 74/96/22 75/97/23 76/98/24
f 10/16/25 9/15/26 3/3/27 5/14/28
f 5/5/29 6/6/30 11/18/31 10/17/32
f 12/20/33 11/19/34 6/12/35 4/4/36
f 9/15/37 12/20/38 4/4/39 3/3/40
f 34/56/41 33/53/42 35/54/43 36/55/44
f 20/41/45 21/42/46 22/24/47 18/23/48
f 28/60/49 27/57/50 29/58/51 30/59/52
f 17/21/53 23/26/54 24/44/55 19/39/56
f 52/52/57 51/51/58 53/69/59 54/70/60
f 55/71/61 56/72/62 42/30/63 41/29/64
f 48/48/65 47/47/66 57/73/67 58/74/68
f 40/27/69 39/32/70 59/75/71 60/76/72
f 1/1/73 2/2/74 14/34/75 13/33/76
f 8/8/77 7/7/78 16/36/79 15/35/80
f 2/2/81 8/11/82 15/37/83 14/34/84
f 7/13/85 1/1/86 13/33/87 16/38/88
f 9/15/89 10/16/90 20/40/91 19/39/92
f 10/17/93 11/18/94 21/42/95 20/41/96
f 11/19/97 12/20/98 24/44/99 21/43/100
f 12/20/101 9/15/102 19/39/103 24/44/104
f 14/34/105 15/37/106 25/46/107 26/45/108
f 67/100/109 66/99/110 71/93/111 69/92/112
f 63/85/113 62/84/114 70/91/115 72/94/116
f 22/38/117 21/33/118 29/50/119 27/49/120
f 21/33/121 24/27/122 30/51/123 29/50/124
f 24/28/125 23/38/126 28/49/127 30/52/128
f 42/76/129 56/78/130 57/79/131 47/69/132
f 59/78/133 39/40/134 48/55/135 58/79/136
f 16/40/137 13/22/138 32/56/139 31/55/140
f 61/104/141 64/101/142 75/102/143 74/103/144
f 65/101/145 68/105/146 73/106/147 76/102/148
f 17/44/149 19/26/150 35/60/151 33/59/152
f 19/27/153 20/21/154 36/53/155 35/51/156
f 20/22/157 18/28/158 34/52/159 36/56/160
f 40/31/161 60/80/162 53/73/163 51/47/164
f 55/75/165 41/32/166 52/48/167 54/74/168
f 13/33/169 14/34/170 38/62/171 37/61/172
f 15/35/173 16/36/174 44/64/175 43/63/176
f 26/45/177 25/46/178 45/66/179 46/65/180
f 31/49/181 32/50/182 50/68/183 49/67/184
f 33/53/185 34/56/186 54/70/187 53/69/188
f 18/23/189 22/24/190 56/72/191 55/71/192
f 27/57/193 28/60/194 58/74/195 57/73/196
f 23/26/197 17/21/198 60/76/199 59/75/200
f 25/46/201 15/37/202 43/77/203 45/66/204
f 14/34/205 26/45/206 46/65/207 38/62/208
f 22/39/209 27/54/210 57/79/211 56/78/212
f 28/54/213 23/39/214 59/78/215 58/79/216
f 32/57/217 13/25/218 37/80/219 50/73/220
f 16/44/221 31/59/222 49/82/223 44/81/224
f 17/25/225 33/57/226 53/73/227 60/80/228
f 34/60/229 18/26/230 55/75/231 54/74/232
f 37/61/233 38/62/234 62/84/235 61/83/236
f 39/32/237 40/27/238 64/86/239 63/85/240
f 41/29/241 42/30/242 66/88/243 65/87/244
f 43/63/245 44/64/246 68/90/247 67/89/248
f 46/65/249 45/66/250 69/92/251 70/91/252
f 47/47/253 48/48/254 72/94/255 71/93/256
f 49/67/257 50/68/258 74/96/259 73/95/260
f 51/51/261 52/52/262 76/98/263 75/97/264
f 42/31/265 47/47/266 71/93/267 66/99/268
f 45/66/269 43/77/270 67/100/271 69/92/272
f 38/62/273 46/65/274 70/91/275 62/84/276
f 48/48/277 39/32/278 63/85/279 72/94/280
f 40/43/281 51/58/282 75/102/283 64/101/284
f 50/73/285 37/80/286 61/104/287 74/103/288
f 44/81/289 49/82/290 73/106/291 68/105/292
f 52/58/293 41/43/294 65/101/295 76/102/296
