# This file uses meters as units for non-parametric coordinates.

mtllib boite_verre.mtl
g default
v -44.083048 2.412896 4.005209
v -40.442096 2.412896 4.005209
v -44.083048 4.450918 4.005209
v -40.442096 4.450918 4.005209
v -44.083048 4.450918 0.364258
v -40.442096 4.450918 0.364258
v -44.083048 2.412896 0.364258
v -40.442096 2.412896 0.364258
v -44.276491 2.304616 4.198652
v -40.248654 2.304616 4.198652
v -40.248654 4.559197 4.198652
v -44.276491 4.559197 4.198652
v -40.248654 4.559197 0.170815
v -44.276491 4.559197 0.170815
v -40.248654 2.304616 0.170815
v -44.276491 2.304616 0.170815
vt 0.375000 0.000000
vt 0.625000 0.000000
vt 0.375000 0.250000
vt 0.625000 0.250000
vt 0.375000 0.500000
vt 0.625000 0.500000
vt 0.375000 0.750000
vt 0.625000 0.750000
vt 0.875000 0.000000
vt 0.875000 0.250000
vt 0.125000 0.000000
vt 0.125000 0.250000
vt 0.375000 0.000000
vt 0.625000 0.000000
vt 0.625000 0.250000
vt 0.375000 0.250000
vt 0.625000 0.500000
vt 0.375000 0.500000
vt 0.625000 0.750000
vt 0.375000 0.750000
vt 0.875000 0.000000
vt 0.875000 0.250000
vt 0.125000 0.000000
vt 0.125000 0.250000
vt 0.375000 0.000000
vt 0.625000 0.000000
vt 0.625000 0.750000
vt 0.375000 0.750000
vt 0.875000 0.000000
vt 0.125000 0.000000
vn 0.000000 0.000000 1.000000
vn 0.000000 0.000000 1.000000
vn 0.000000 0.000000 1.000000
vn 0.000000 0.000000 1.000000
vn 0.000000 1.000000 0.000000
vn 0.000000 1.000000 0.000000
vn 0.000000 1.000000 0.000000
vn 0.000000 1.000000 0.000000
vn 0.000000 0.000000 -1.000000
vn 0.000000 0.000000 -1.000000
vn 0.000000 0.000000 -1.000000
vn 0.000000 0.000000 -1.000000
vn 1.000000 0.000000 0.000000
vn 1.000000 0.000000 0.000000
vn 1.000000 0.000000 0.000000
vn 1.000000 0.000000 0.000000
vn -1.000000 0.000000 0.000000
vn -1.000000 0.000000 0.000000
vn -1.000000 0.000000 0.000000
vn -1.000000 0.000000 0.000000
vn 0.000000 0.000000 -1.000000
vn 0.000000 0.000000 -1.000000
vn 0.000000 0.000000 -1.000000
vn 0.000000 0.000000 -1.000000
vn 0.000000 -1.000000 0.000000
vn 0.000000 -1.000000 0.000000
vn 0.000000 -1.000000 0.000000
vn 0.000000 -1.000000 0.000000
vn 0.000000 0.000000 1.000000
vn 0.000000 0.000000 1.000000
vn 0.000000 0.000000 1.000000
vn 0.000000 0.000000 1.000000
vn -1.000000 0.000000 0.000000
vn -1.000000 0.000000 0.000000
vn -1.000000 0.000000 0.000000
vn -1.000000 0.000000 0.000000
vn 1.000000 0.000000 0.000000
vn 1.000000 0.000000 0.000000
vn 1.000000 0.000000 0.000000
vn 1.000000 0.000000 0.000000
vn 0.000000 -0.872599 -0.488437
vn 0.000000 -0.872599 -0.488437
vn 0.000000 -0.872599 -0.488437
vn 0.000000 -0.872599 -0.488437
vn 0.000000 -0.872599 0.488437
vn 0.000000 -0.872599 0.488437
vn 0.000000 -0.872599 0.488437
vn 0.000000 -0.872599 0.488437
vn -0.488437 -0.872599 0.000000
vn -0.488437 -0.872599 0.000000
vn -0.488437 -0.872599 0.000000
vn -0.488437 -0.872599 0.000000
vn 0.488437 -0.872599 0.000000
vn 0.488437 -0.872599 0.000000
vn 0.488437 -0.872599 0.000000
vn 0.488437 -0.872599 0.000000
s off
g vitrine stand_1x1
usemtl lambert2SG
f 9/25/1 10/26/2 11/4/3 12/3/4
f 12/3/5 11/4/6 13/6/7 14/5/8
f 14/5/9 13/6/10 15/27/11 16/28/12
f 10/26/13 15/29/14 13/10/15 11/4/16
f 16/30/17 9/25/18 12/3/19 14/12/20
f 1/13/21 3/16/22 4/15/23 2/14/24
f 3/16/25 5/18/26 6/17/27 4/15/28
f 5/18/29 7/20/30 8/19/31 6/17/32
f 2/14/33 4/15/34 6/22/35 8/21/36
f 7/23/37 5/24/38 3/16/39 1/13/40
f 1/1/41 2/2/42 10/26/43 9/25/44
f 8/8/45 7/7/46 16/28/47 15/27/48
f 2/2/49 8/9/50 15/29/51 10/26/52
f 7/11/53 1/1/54 9/25/55 16/30/56
g default
v -44.307135 0.010310 4.229297
v -40.218009 0.010310 4.229297
v -44.307135 2.299198 4.229297
v -40.218009 2.299198 4.229297
v -44.307135 2.299198 0.140170
v -40.218009 2.299198 0.140170
v -44.307135 0.010310 0.140170
v -40.218009 0.010310 0.140170
vt 0.375000 0.000000
vt 0.625000 0.000000
vt 0.375000 0.250000
vt 0.625000 0.250000
vt 0.375000 0.500000
vt 0.625000 0.500000
vt 0.375000 0.750000
vt 0.625000 0.750000
vt 0.375000 1.000000
vt 0.625000 1.000000
vt 0.875000 0.000000
vt 0.875000 0.250000
vt 0.125000 0.000000
vt 0.125000 0.250000
vn 0.000000 0.000000 1.000000
vn 0.000000 0.000000 1.000000
vn 0.000000 0.000000 1.000000
vn 0.000000 0.000000 1.000000
vn 0.000000 1.000000 0.000000
vn 0.000000 1.000000 0.000000
vn 0.000000 1.000000 0.000000
vn 0.000000 1.000000 0.000000
vn 0.000000 0.000000 -1.000000
vn 0.000000 0.000000 -1.000000
vn 0.000000 0.000000 -1.000000
vn 0.000000 0.000000 -1.000000
vn 0.000000 -1.000000 0.000000
vn 0.000000 -1.000000 0.000000
vn 0.000000 -1.000000 0.000000
vn 0.000000 -1.000000 0.000000
vn 1.000000 0.000000 0.000000
vn 1.000000 0.000000 0.000000
vn 1.000000 0.000000 0.000000
vn 1.000000 0.000000 0.000000
vn -1.000000 0.000000 0.000000
vn -1.000000 0.000000 0.000000
vn -1.000000 0.000000 0.000000
vn -1.000000 0.000000 0.000000
s off
g stand_1x1 stand
usemtl initialShadingGroup
f 17/31/57 18/32/58 20/34/59 19/33/60
f 19/33/61 20/34/62 22/36/63 21/35/64
f 21/35/65 22/36/66 24/38/67 23/37/68
f 23/37/69 24/38/70 18/40/71 17/39/72
f 18/32/73 24/41/74 22/42/75 20/34/76
f 23/43/77 17/31/78 19/33/79 21/44/80
