# This file uses centimeters as units for non-parametric coordinates.

mtllib escalier02.mtl
g default
v -52.762050 0.019036 4.972384
v -52.843666 0.019036 -5.027283
v -52.762050 0.378938 4.972384
v -52.843666 0.378938 -5.027283
v -53.752727 0.738841 -5.019863
v -53.752727 0.378938 -5.019863
v -53.752727 0.019036 -5.019863
v -53.671111 0.019036 4.979804
v -53.671111 0.378938 4.979804
v -53.671111 0.738841 4.979804
v -54.661787 1.098743 -5.012444
v -54.661787 0.738841 -5.012444
v -54.661787 0.378938 -5.012444
v -54.661787 0.019036 -5.012444
v -54.580171 0.019036 4.987223
v -54.580171 0.378938 4.987223
v -54.580171 0.738841 4.987223
v -54.580171 1.098743 4.987223
v -55.570846 1.458646 -5.005024
v -55.570846 1.098743 -5.005024
v -55.570846 0.738841 -5.005024
v -55.570846 0.378938 -5.005024
v -55.570846 0.019036 -5.005024
v -55.489231 0.019036 4.994643
v -55.489231 0.378938 4.994643
v -55.489231 0.738841 4.994643
v -55.489231 1.098743 4.994643
v -55.489231 1.458646 4.994643
v -56.602841 1.458646 -4.996601
v -56.602841 1.098743 -4.996601
v -56.602841 0.738841 -4.996601
v -56.602841 0.378938 -4.996601
v -56.602841 0.019036 -4.996601
v -56.521226 0.019036 5.003066
v -56.521226 0.378938 5.003066
v -56.521226 0.738841 5.003066
v -56.521226 1.098743 5.003066
v -56.521226 1.458646 5.003066
vt 0.625000 0.000000
vt 0.625000 0.750000
vt 0.625000 1.000000
vt 0.875000 0.000000
vt 0.625000 0.022727
vt 0.750000 0.375000
vt 0.602273 0.704545
vt 0.602273 0.727273
vt 0.602273 0.750000
vt 0.602273 0.000000
vt 0.602273 1.000000
vt 0.602273 0.022727
vt 0.602273 0.045455
vt 0.579545 0.681818
vt 0.579545 0.704545
vt 0.579545 0.727273
vt 0.579545 0.750000
vt 0.579545 0.000000
vt 0.579545 1.000000
vt 0.579545 0.022727
vt 0.579545 0.045455
vt 0.579545 0.068182
vt 0.556818 0.659091
vt 0.556818 0.681818
vt 0.556818 0.704545
vt 0.556818 0.727273
vt 0.556818 0.750000
vt 0.556818 0.000000
vt 0.556818 1.000000
vt 0.556818 0.022727
vt 0.556818 0.045455
vt 0.556818 0.068182
vt 0.556818 0.090909
vt 0.534091 0.659091
vt 0.534091 0.681818
vt 0.534091 0.704545
vt 0.534091 0.727273
vt 0.534091 0.750000
vt 0.534091 0.000000
vt 0.534091 1.000000
vt 0.534091 0.022727
vt 0.534091 0.045455
vt 0.534091 0.068182
vt 0.534091 0.090909
vn 0.999967 0.000000 -0.008162
vn 0.999967 0.000000 -0.008162
vn 0.999967 0.000000 -0.008162
vn 0.999967 0.000000 -0.008162
vn -0.008162 0.000000 -0.999967
vn -0.008162 0.000000 -0.999967
vn -0.008162 0.000000 -0.999967
vn -0.008162 0.000000 -0.999967
vn 0.000000 -1.000000 0.000000
vn 0.000000 -1.000000 0.000000
vn 0.000000 -1.000000 0.000000
vn 0.000000 -1.000000 0.000000
vn 0.008162 0.000000 0.999967
vn 0.008162 0.000000 0.999967
vn 0.008162 0.000000 0.999967
vn 0.008162 0.000000 0.999967
vn -0.008162 0.000000 -0.999967
vn -0.008162 0.000000 -0.999967
vn -0.008162 0.000000 -0.999967
vn -0.008162 0.000000 -0.999967
vn 0.000000 -1.000000 0.000000
vn 0.000000 -1.000000 0.000000
vn 0.008162 0.000000 0.999967
vn 0.008162 0.000000 0.999967
vn 0.008162 0.000000 0.999967
vn 0.008162 0.000000 0.999967
vn -0.008162 0.000000 -0.999967
vn -0.008162 0.000000 -0.999967
vn -0.008162 0.000000 -0.999967
vn -0.008162 0.000000 -0.999967
vn -0.008162 0.000000 -0.999967
vn 0.000000 -1.000000 0.000000
vn 0.000000 -1.000000 0.000000
vn 0.008162 0.000000 0.999967
vn 0.008162 0.000000 0.999967
vn 0.008162 0.000000 0.999967
vn 0.008162 0.000000 0.999967
vn 0.008162 0.000000 0.999967
vn -0.008162 0.000000 -0.999967
vn -0.008162 0.000000 -0.999967
vn -0.008162 0.000000 -0.999967
vn -0.008162 0.000000 -0.999967
vn -0.008162 0.000000 -0.999967
vn -0.008162 0.000000 -0.999967
vn 0.000000 -1.000000 0.000000
vn 0.000000 -1.000000 0.000000
vn 0.008162 0.000000 0.999967
vn 0.008162 0.000000 0.999967
vn 0.008162 0.000000 0.999967
vn 0.008162 0.000000 0.999967
vn 0.008162 0.000000 0.999967
vn 0.008162 0.000000 0.999967
vn 0.000000 1.000000 0.000000
vn 0.000000 1.000000 0.000000
vn 0.000000 1.000000 0.000000
vn 0.000000 1.000000 0.000000
vn 0.999967 0.000000 -0.008162
vn 0.999967 0.000000 -0.008162
vn 0.999967 0.000000 -0.008162
vn 0.999967 0.000000 -0.008162
vn 0.000000 1.000000 0.000000
vn 0.000000 1.000000 0.000000
vn 0.000000 1.000000 0.000000
vn 0.000000 1.000000 0.000000
vn 0.999967 0.000000 -0.008162
vn 0.999967 0.000000 -0.008162
vn 0.999967 0.000000 -0.008162
vn 0.999967 0.000000 -0.008162
vn 0.000000 1.000000 0.000000
vn 0.000000 1.000000 0.000000
vn 0.000000 1.000000 0.000000
vn 0.000000 1.000000 0.000000
vn 0.999967 0.000000 -0.008162
vn 0.999967 0.000000 -0.008162
vn 0.999967 0.000000 -0.008162
vn 0.999967 0.000000 -0.008162
vn 0.000000 1.000000 0.000000
vn 0.000000 1.000000 0.000000
vn 0.000000 1.000000 0.000000
vn 0.000000 1.000000 0.000000
vn -0.999967 0.000000 0.008162
vn -0.999967 0.000000 0.008162
vn -0.999967 0.000000 0.008162
vn -0.999967 0.000000 0.008162
s off
g escalier
usemtl initialShadingGroup
f 1/1/1 2/4/2 4/6/3 3/5/4
s 1
f 7/9/5 6/8/6 4/6/7 2/2/8
s 2
f 8/11/9 7/9/10 2/2/11 1/3/12
s 3
f 9/12/13 8/10/14 1/1/15 3/5/16
s 1
f 13/16/17 12/15/18 5/7/19 6/8/6
f 14/17/20 13/16/17 6/8/6 7/9/5
s 2
f 15/19/21 14/17/22 7/9/10 8/11/9
s 3
f 16/20/23 15/18/24 8/10/14 9/12/13
f 17/21/25 16/20/23 9/12/13 10/13/26
s 1
f 21/25/27 20/24/28 11/14/29 12/15/18
f 22/26/30 21/25/27 12/15/18 13/16/17
f 23/27/31 22/26/30 13/16/17 14/17/20
s 2
f 24/29/32 23/27/33 14/17/22 15/19/21
s 3
f 25/30/34 24/28/35 15/18/24 16/20/23
f 26/31/36 25/30/34 16/20/23 17/21/25
f 27/32/37 26/31/36 17/21/25 18/22/38
s 1
f 30/35/39 29/34/40 19/23/41 20/24/28
f 31/36/42 30/35/39 20/24/28 21/25/27
f 32/37/43 31/36/42 21/25/27 22/26/30
f 33/38/44 32/37/43 22/26/30 23/27/31
s 2
f 34/40/45 33/38/46 23/27/33 24/29/32
s 3
f 35/41/47 34/39/48 24/28/35 25/30/34
f 36/42/49 35/41/47 25/30/34 26/31/36
f 37/43/50 36/42/49 26/31/36 27/32/37
f 38/44/51 37/43/50 27/32/37 28/33/52
s off
f 19/23/53 29/34/54 38/44/55 28/33/56
f 20/24/57 19/23/58 28/33/59 27/32/60
f 11/14/61 20/24/62 27/32/63 18/22/64
f 12/15/65 11/14/66 18/22/67 17/21/68
f 5/7/69 12/15/70 17/21/71 10/13/72
f 6/8/73 5/7/74 10/13/75 9/12/76
f 4/6/77 6/8/78 9/12/79 3/5/80
f 33/38/81 34/40/82 38/44/83 29/34/84
