# This file uses meters as units for non-parametric coordinates.

mtllib salle2.mtl
g default
v 18.540306 -1.000000 81.308517
v -14.835129 -1.000000 81.308517
v 18.540306 0.000000 81.308517
v -14.835129 0.000000 81.308517
v -14.835129 -1.000000 81.308517
v -14.835129 -1.000000 22.810822
v -14.835129 0.000000 81.308517
v -14.835129 0.000000 22.810822
v -14.835129 -1.000000 22.810822
v 18.540306 -1.000000 22.810822
v -14.835129 0.000000 22.810822
v 18.540306 0.000000 22.810822
v 18.540306 -1.000000 22.810822
v 18.540306 -1.000000 81.308517
v 18.540306 0.000000 22.810822
v 18.540306 0.000000 81.308517
v 18.540306 0.000000 81.308517
v -14.835129 0.000000 81.308517
v 18.540306 0.000000 22.810822
v -14.835129 0.000000 22.810822
v 18.540306 -1.000000 22.810822
v -14.835129 -1.000000 22.810822
v 18.540306 -1.000000 81.308517
v -14.835129 -1.000000 81.308517
vt 0.010314 0.001993
vt 0.010314 0.496929
vt 0.001853 0.496929
vt 0.001853 0.001993
vt 0.024944 0.001993
vt 0.024944 0.496929
vt 0.016483 0.496929
vt 0.016483 0.001993
vt 0.313495 0.496929
vt 0.031113 0.496929
vt 0.031113 0.001993
vt 0.313495 0.001993
vt 0.600610 0.496929
vt 0.318228 0.496929
vt 0.318228 0.001993
vt 0.600610 0.001993
vt 0.928344 0.001992
vt 0.928344 0.284374
vt 0.919883 0.284374
vt 0.919883 0.001992
vt 0.919883 0.574708
vt 0.919883 0.292326
vt 0.928344 0.292326
vt 0.928344 0.574708
vn 0.000000 0.000000 1.000000
vn 0.000000 0.000000 1.000000
vn 0.000000 0.000000 1.000000
vn 0.000000 0.000000 1.000000
vn -1.000000 0.000000 0.000000
vn -1.000000 0.000000 0.000000
vn -1.000000 0.000000 0.000000
vn -1.000000 0.000000 0.000000
vn 0.000000 0.000000 -1.000000
vn 0.000000 0.000000 -1.000000
vn 0.000000 0.000000 -1.000000
vn 0.000000 0.000000 -1.000000
vn 1.000000 0.000000 0.000000
vn 1.000000 0.000000 0.000000
vn 1.000000 0.000000 0.000000
vn 1.000000 0.000000 0.000000
vn 0.000000 1.000000 0.000000
vn 0.000000 1.000000 0.000000
vn 0.000000 1.000000 0.000000
vn 0.000000 1.000000 0.000000
vn 0.000000 -1.000000 0.000000
vn 0.000000 -1.000000 0.000000
vn 0.000000 -1.000000 0.000000
vn 0.000000 -1.000000 0.000000
s off
g second_room:room_2_floor
usemtl texturedFacets16
f 3/17/1 4/18/2 2/19/3 1/20/4
f 7/1/5 8/2/6 6/3/7 5/4/8
f 11/21/9 12/22/10 10/23/11 9/24/12
f 15/5/13 16/6/14 14/7/15 13/8/16
f 19/9/17 20/10/18 18/11/19 17/12/20
f 23/13/21 24/14/22 22/15/23 21/16/24
g default
v 18.540306 -1.000000 81.308517
v -14.835129 -1.000000 81.308517
v 18.540306 0.000000 81.308517
v -14.835129 0.000000 81.308517
v -14.835129 -1.000000 81.308517
v -14.835129 -1.000000 22.810822
v -14.835129 0.000000 81.308517
v -14.835129 0.000000 22.810822
v -14.835129 -1.000000 22.810822
v 18.540306 -1.000000 22.810822
v -14.835129 0.000000 22.810822
v 18.540306 0.000000 22.810822
v 18.540306 -1.000000 22.810822
v 18.540306 -1.000000 81.308517
v 18.540306 0.000000 22.810822
v 18.540306 0.000000 81.308517
v 18.540306 0.000000 81.308517
v -14.835129 0.000000 81.308517
v 18.540306 0.000000 22.810822
v -14.835129 0.000000 22.810822
v 18.540306 -1.000000 22.810822
v -14.835129 -1.000000 22.810822
v 18.540306 -1.000000 81.308517
v -14.835129 -1.000000 81.308517
vt 0.613804 0.001993
vt 0.613804 0.496929
vt 0.605343 0.496929
vt 0.605343 0.001993
vt 0.626605 0.001993
vt 0.626605 0.496929
vt 0.618144 0.496929
vt 0.618144 0.001993
vt 0.913327 0.496929
vt 0.630945 0.496929
vt 0.630945 0.001993
vt 0.913327 0.001993
vt 0.284235 0.998008
vt 0.001853 0.998008
vt 0.001853 0.503072
vt 0.284235 0.503072
vt 0.297428 0.503071
vt 0.297428 0.785453
vt 0.288968 0.785453
vt 0.288968 0.503071
vt 0.301769 0.786845
vt 0.301769 0.504463
vt 0.310230 0.504463
vt 0.310230 0.786845
vn 0.000000 0.000000 1.000000
vn 0.000000 0.000000 1.000000
vn 0.000000 0.000000 1.000000
vn 0.000000 0.000000 1.000000
vn -1.000000 0.000000 0.000000
vn -1.000000 0.000000 0.000000
vn -1.000000 0.000000 0.000000
vn -1.000000 0.000000 0.000000
vn 0.000000 0.000000 -1.000000
vn 0.000000 0.000000 -1.000000
vn 0.000000 0.000000 -1.000000
vn 0.000000 0.000000 -1.000000
vn 1.000000 0.000000 0.000000
vn 1.000000 0.000000 0.000000
vn 1.000000 0.000000 0.000000
vn 1.000000 0.000000 0.000000
vn 0.000000 1.000000 0.000000
vn 0.000000 1.000000 0.000000
vn 0.000000 1.000000 0.000000
vn 0.000000 1.000000 0.000000
vn 0.000000 -1.000000 0.000000
vn 0.000000 -1.000000 0.000000
vn 0.000000 -1.000000 0.000000
vn 0.000000 -1.000000 0.000000
s off
g second_room1:room_2_floor
usemtl texturedFacets16
f 27/41/25 28/42/26 26/43/27 25/44/28
f 31/25/29 32/26/30 30/27/31 29/28/32
f 35/45/33 36/46/34 34/47/35 33/48/36
f 39/29/37 40/30/38 38/31/39 37/32/40
f 43/33/41 44/34/42 42/35/43 41/36/44
f 47/37/45 48/38/46 46/39/47 45/40/48
